<?xml version="1.0" encoding="utf-8"?>
<!-- Generator: Adobe Illustrator 22.1.0, SVG Export Plug-In . SVG Version: 6.00 Build 0)  -->
<svg version="1.1" id="Layer_1" xmlns="http://www.w3.org/2000/svg" xmlns:xlink="http://www.w3.org/1999/xlink" x="0px" y="0px"
	 viewBox="0 0 1200 1920" style="enable-background:new 0 0 1200 1920;" xml:space="preserve">
<style type="text/css">
	.st0{fill:#D8F8FF;}
	.st1{opacity:0.75;}
	.st2{fill:#ABCE91;}
	.st3{fill:#C7DEB6;}
	.st4{opacity:0.5;fill:#C7DEB6;}
	.st5{fill:url(#SVGID_1_);}
	.st6{fill:url(#SVGID_2_);}
	.st7{fill:url(#SVGID_3_);}
	.st8{fill:url(#SVGID_4_);}
	.st9{fill:url(#SVGID_5_);}
</style>
<rect class="st0" width="1199.1" height="1920"/>
<g class="st1">
	<polygon class="st2" points="36.4,1564.1 37.1,1564.1 36.4,1564.8 	"/>
	<polygon class="st2" points="1725,1564.1 1725,1564.8 1724.3,1564.1 	"/>
	<path class="st2" d="M1725,1564.8l-1.4,996.4H35l1.4-996.4l0.7-0.7l181.1-182c56.3-56.6,147.9-56.8,204.4-0.3l80.4,80.4
		c56.6,56.5,148.3,56.3,204.5-0.4l77.5-78.2c56.6-57.2,149.1-56.9,205.5,0.4l74.9,76.3c56.3,57.5,148.9,57.6,205.5,0.4l75.6-76.3
		c57-57.6,150.3-56.9,206.5,1.4l171.5,178L1725,1564.8z"/>
	<polygon class="st2" points="36.4,1564.1 37.1,1564.1 36.4,1564.8 	"/>
	<polygon class="st2" points="1725,1564.1 1725,1564.8 1724.3,1564.1 	"/>
</g>
<g class="st1">
	<polygon class="st3" points="-193.6,1611.7 -192.9,1611.7 -193.6,1612.4 	"/>
	<polygon class="st3" points="1495,1611.7 1495,1612.4 1494.3,1611.7 	"/>
	<path class="st4" d="M1495,1612.4l-1.4,996.4H-195l1.4-996.4l0.7-0.7l181.1-182c56.3-56.6,147.9-56.8,204.4-0.3l80.4,80.4
		c56.6,56.5,148.3,56.3,204.5-0.4l77.5-78.2c56.6-57.2,149.1-56.9,205.5,0.4l74.9,76.3c56.3,57.5,148.9,57.6,205.5,0.4l75.6-76.3
		c57-57.6,150.3-56.9,206.5,1.4l171.5,178.2L1495,1612.4z"/>
	<polygon class="st3" points="-193.6,1611.7 -192.9,1611.7 -193.6,1612.4 	"/>
	<polygon class="st3" points="1495,1611.7 1495,1612.4 1494.3,1611.7 	"/>
</g>
<g class="st1">
	
		<linearGradient id="SVGID_1_" gradientUnits="userSpaceOnUse" x1="-73.2572" y1="228.4028" x2="-73.2572" y2="229.0788" gradientTransform="matrix(1 0 0 -1 0 1920)">
		<stop  offset="0" style="stop-color:#71C285"/>
		<stop  offset="1" style="stop-color:#FCD462"/>
	</linearGradient>
	<polygon class="st5" points="-73.6,1690.9 -72.9,1690.9 -73.6,1691.6 	"/>
	
		<linearGradient id="SVGID_2_" gradientUnits="userSpaceOnUse" x1="1614.6655" y1="228.4028" x2="1614.6655" y2="229.0788" gradientTransform="matrix(1 0 0 -1 0 1920)">
		<stop  offset="0" style="stop-color:#71C285"/>
		<stop  offset="1" style="stop-color:#FCD462"/>
	</linearGradient>
	<polygon class="st6" points="1615,1690.9 1615,1691.6 1614.3,1690.9 	"/>
	
		<linearGradient id="SVGID_3_" gradientUnits="userSpaceOnUse" x1="770" y1="-768.042" x2="770" y2="453.5895" gradientTransform="matrix(1 0 0 -1 0 1920)">
		<stop  offset="0" style="stop-color:#71C285"/>
		<stop  offset="1" style="stop-color:#FCD462"/>
	</linearGradient>
	<path class="st7" d="M1615,1691.6l-1.4,996.4H-75l1.4-996.4l0.7-0.7l181.1-182c56.3-56.6,147.9-56.8,204.4-0.3l80.4,80.4
		c56.6,56.5,148.3,56.3,204.5-0.4l77.5-78.2c56.6-57.2,149.1-56.9,205.5,0.4l74.9,76.3c56.3,57.5,148.9,57.6,205.5,0.4l75.6-76.3
		c57-57.6,150.3-56.9,206.5,1.4l171.5,178L1615,1691.6z"/>
	
		<linearGradient id="SVGID_4_" gradientUnits="userSpaceOnUse" x1="-73.2572" y1="228.4028" x2="-73.2572" y2="229.0788" gradientTransform="matrix(1 0 0 -1 0 1920)">
		<stop  offset="0" style="stop-color:#71C285"/>
		<stop  offset="1" style="stop-color:#FCD462"/>
	</linearGradient>
	<polygon class="st8" points="-73.6,1690.9 -72.9,1690.9 -73.6,1691.6 	"/>
	
		<linearGradient id="SVGID_5_" gradientUnits="userSpaceOnUse" x1="1614.6655" y1="228.4028" x2="1614.6655" y2="229.0788" gradientTransform="matrix(1 0 0 -1 0 1920)">
		<stop  offset="0" style="stop-color:#71C285"/>
		<stop  offset="1" style="stop-color:#FCD462"/>
	</linearGradient>
	<polygon class="st9" points="1615,1690.9 1615,1691.6 1614.3,1690.9 	"/>
</g>
</svg>
